<?xml version="1.0" encoding="UTF-8" standalone="no"?>
<!DOCTYPE svg PUBLIC "-//W3C//DTD SVG 1.1//EN" "http://www.w3.org/Graphics/SVG/1.1/DTD/svg11.dtd">
<svg width="100%" height="100%" viewBox="0 0 512 512" version="1.1" xmlns="http://www.w3.org/2000/svg" xmlns:xlink="http://www.w3.org/1999/xlink" xml:space="preserve" xmlns:serif="http://www.serif.com/" style="fill-rule:evenodd;clip-rule:evenodd;stroke-linejoin:round;stroke-miterlimit:2;">
    <g transform="matrix(2.22617,0,0,2.22617,26.6177,-0.00934708)">
        <path id="color_fill" d="M196.457,158.88L196.243,159.237L196.1,159.594C195.101,162.661 189.466,178.781 175.2,194.616C162.076,209.168 138.252,226.501 99.734,226.501C97.024,226.501 94.242,226.429 91.531,226.287C43.455,223.362 21.985,203.033 12.427,186.485C-0.127,164.658 0.444,136.198 14.068,108.379L14.424,107.666L16.065,26.779C16.065,26.422 16.279,26.137 16.564,25.994C16.707,25.923 16.778,25.923 16.921,25.923C17.063,25.923 17.277,25.923 17.491,26.137L58.434,58.734L60.646,57.165C66.209,53.028 81.188,43.47 100.305,43.47C107.937,43.47 115.569,44.968 122.916,48.035L125.341,49.033L161.006,3.953C161.149,3.739 161.434,3.597 161.719,3.597L161.933,3.597C162.29,3.668 162.504,3.953 162.575,4.31L172.205,70.361L172.918,71.145C180.479,79.705 216.857,123.929 196.457,158.88Z" style="fill:rgb(255,206,160);fill-rule:nonzero;"/>
        <path id="shades_2_" d="M189.038,174.074C160.364,218.44 141.89,212.591 141.89,212.591C163.288,198.825 174.273,178.282 174.273,178.282L189.038,174.074Z" style="fill:rgb(222,151,107);fill-rule:nonzero;"/>
        <path id="s2" d="M194.459,165.086L176.984,171.648C182.975,161.948 186.185,153.816 186.185,153.816C199.88,122.431 167.782,83.842 163.716,79.277L160.649,75.782L158.937,15.223L172.347,70.432C172.347,70.361 220.352,117.296 194.459,165.086Z" style="fill:rgb(222,151,107);fill-rule:nonzero;"/>
        <path id="s1" d="M91.959,220.937C91.959,220.937 38.961,231.85 11.428,182.562C-9.685,146.897 15.851,107.737 15.851,107.737L17.634,26.137L58.577,58.734C58.577,58.734 90.247,32.556 125.484,49.033L159.009,15.223L129.407,64.013L118.351,59.376C92.387,49.461 60.432,75.925 60.432,75.925L28.119,50.175L26.907,110.662L25.338,113.729C13.568,137.838 12.784,162.019 23.269,180.208C31.258,194.188 49.376,218.369 91.959,220.937" style="fill:rgb(255,248,230);fill-rule:nonzero;"/>
        <path id="eyes" d="M76.267,124.357C75.767,124.357 75.268,124.286 74.769,124.072C72.486,123.216 71.274,120.719 72.13,118.437C72.344,117.937 76.909,105.526 87.822,102.958C95.169,101.175 103.086,104.242 111.361,112.017C113.144,113.658 113.215,116.44 111.575,118.223C109.934,120.006 107.152,120.077 105.369,118.437C101.232,114.585 95.169,110.234 89.891,111.518C83.614,113.016 80.475,121.361 80.404,121.433C79.762,123.216 78.05,124.357 76.267,124.357Z" style="fill:rgb(127,28,0);fill-rule:nonzero;"/>
        <path id="eyes1" serif:id="eyes" d="M133.829,110.448C133.33,110.448 132.831,110.377 132.332,110.163C130.049,109.307 128.836,106.81 129.692,104.528C129.835,104.1 133.758,93.472 143.174,91.26C149.522,89.762 156.298,92.33 163.288,98.893C165.072,100.533 165.143,103.315 163.502,105.098C161.862,106.881 159.08,106.953 157.297,105.312C154.016,102.245 149.308,98.821 145.242,99.82C140.534,100.961 137.967,107.452 137.967,107.523C137.325,109.307 135.613,110.448 133.829,110.448Z" style="fill:rgb(127,28,0);fill-rule:nonzero;"/>
        <path id="cat_face" d="M63.927,175.714C62.357,175.714 60.788,174.858 60.004,173.289C58.862,171.149 59.79,168.439 61.929,167.369C72.843,161.805 72.843,151.462 72.843,151.32C72.843,148.894 74.769,146.897 77.194,146.897L77.265,146.897C79.69,146.897 81.616,148.823 81.688,151.248C81.688,151.89 81.688,167.226 65.995,175.215C65.282,175.572 64.569,175.714 63.927,175.714Z" style="fill:rgb(127,28,0);fill-rule:nonzero;"/>
        <path id="Layer_4" d="M99.877,229.996C97.166,229.996 94.313,229.924 91.46,229.71C41.815,226.643 19.489,205.459 9.502,188.125C-3.693,165.229 -3.123,135.627 11.072,106.739L12.712,26.636C12.712,24.995 13.711,23.426 15.209,22.713C16.707,22 18.49,22.214 19.845,23.284L58.72,54.24C67.279,47.892 93.314,31.843 124.414,44.682L158.438,1.671C159.508,0.315 161.363,-0.326 163.003,0.173C164.715,0.601 165.999,2.027 166.213,3.811L175.7,68.863C182.476,76.566 221.279,123.43 199.524,160.735C198.454,164.088 192.605,180.707 177.911,197.042C163.93,212.306 139.393,229.996 99.877,229.996ZM21.272,35.766L19.845,107.951C19.845,108.593 19.703,109.235 19.417,109.806C6.15,136.269 5.365,163.232 17.206,183.774C29.974,205.886 55.867,218.726 92.03,220.937C142.389,224.004 168.923,197.327 181.549,177.64C176.77,180.208 171.063,181.92 164.786,181.777C157.796,181.563 151.02,178.924 144.529,173.931C136.968,182.918 127.053,190.979 115.141,192.691C100.091,194.83 85.183,186.628 70.632,168.296C69.134,166.37 69.419,163.588 71.345,162.09C73.271,160.592 76.053,160.878 77.551,162.804C89.962,178.496 102.231,185.629 113.929,183.988C123.415,182.633 131.618,175.786 138.038,168.082C133.687,163.588 129.55,157.953 125.484,151.248C124.771,150.036 124.628,148.466 125.27,147.182C125.841,145.899 127.053,144.9 128.48,144.686L157.083,139.265C158.652,138.98 160.293,139.55 161.291,140.834C162.29,142.047 162.575,143.759 161.933,145.257C161.577,146.113 157.368,156.313 149.879,167.012C154.872,170.864 159.936,172.861 165,173.075L165.785,173.075C180.122,173.075 190.679,158.453 190.75,158.31C191.036,157.882 191.321,157.454 191.606,157.026C191.677,156.883 191.82,156.669 191.891,156.527C212.078,122.217 168.781,74.427 168.353,73.927C167.782,73.285 167.354,72.429 167.212,71.573L158.937,15.152L129.122,52.814C127.838,54.383 125.627,54.954 123.772,54.098C90.247,38.263 61.787,62.943 61.502,63.228C59.932,64.654 57.507,64.726 55.867,63.371L21.272,35.766ZM136.397,151.962C138.68,155.314 140.962,158.239 143.316,160.806C146.098,156.669 148.381,152.675 150.092,149.394L136.397,151.962Z" style="fill:rgb(127,28,0);fill-rule:nonzero;"/>
    </g>
</svg>
